<svg xmlns="http://www.w3.org/2000/svg" viewBox="0 0 120 72" fill="none">
  <ellipse cx="58" cy="66" rx="48" ry="5" fill="#000" fill-opacity="0.10"/>
  <path d="M10 46 L16 50 L16 62 L10 58 Z" fill="#8b949e"/>
  <rect x="16" y="38" width="82" height="22" rx="10" fill="#b1bac4"/>
  <ellipse cx="34" cy="60" rx="13" ry="5" fill="#000" fill-opacity="0.14"/>
  <ellipse cx="84" cy="60" rx="13" ry="5" fill="#000" fill-opacity="0.14"/>
  <path d="M28 38 C32 20, 78 20, 82 38 Z" fill="#b1bac4"/>
  <path d="M98 40 L108 44 L108 58 L98 58 Z" fill="#8b949e"/>
  <path d="M32 38 C35 22, 75 22, 78 38 Z" fill="#0d1117" fill-opacity="0.95"/>
  <path d="M76 38 L82 38 L86 48 L76 42 Z" fill="#1c2128" fill-opacity="0.7"/>
  <circle cx="34" cy="58" r="11" fill="#21262d"/>
  <circle cx="34" cy="58" r="6.5" fill="#ffffff"/>
  <circle cx="34" cy="58" r="3" fill="#374151"/>
  <line x1="34" y1="52" x2="34" y2="64" stroke="#9ca3af" stroke-width="1" stroke-opacity="0.5"/>
  <line x1="28" y1="58" x2="40" y2="58" stroke="#9ca3af" stroke-width="1" stroke-opacity="0.5"/>
  <circle cx="84" cy="58" r="11" fill="#21262d"/>
  <circle cx="84" cy="58" r="6.5" fill="#ffffff"/>
  <circle cx="84" cy="58" r="3" fill="#374151"/>
  <line x1="84" y1="52" x2="84" y2="64" stroke="#9ca3af" stroke-width="1" stroke-opacity="0.5"/>
  <line x1="78" y1="58" x2="90" y2="58" stroke="#9ca3af" stroke-width="1" stroke-opacity="0.5"/>
  <rect x="16" y="20" width="82" height="40" rx="10" fill="url(#g4)" fill-opacity="0.18"/>
  <rect x="100" y="44" width="7" height="2.5" rx="1.2" fill="#fde68a" fill-opacity="0.92"/>
  <rect x="10" y="44" width="5" height="2.5" rx="1.2" fill="#f85149" fill-opacity="0.8"/>
  <path d="M38 24 Q55 20 72 24" stroke="white" stroke-width="1.5" stroke-opacity="0.3" stroke-linecap="round" fill="none"/>
  <defs>
    <radialGradient id="g4" cx="35%" cy="30%" r="65%">
      <stop offset="0%" stop-color="white" stop-opacity="1"/>
      <stop offset="100%" stop-color="black" stop-opacity="0"/>
    </radialGradient>
  </defs>
</svg>
