<svg xmlns="http://www.w3.org/2000/svg" viewBox="0 0 160 90" fill="none">
  <defs>
    <radialGradient id="shadow" cx="50%" cy="50%" r="50%">
      <stop offset="0%" stop-color="#000" stop-opacity="0.18"/>
      <stop offset="100%" stop-color="#000" stop-opacity="0"/>
    </radialGradient>
    <linearGradient id="body-white" x1="0" y1="0" x2="0" y2="1">
      <stop offset="0%" stop-color="#e6edf3"/>
      <stop offset="60%" stop-color="#c9d1d9"/>
      <stop offset="100%" stop-color="#adb5bd"/>
    </linearGradient>
    <linearGradient id="body-side-white" x1="0" y1="0" x2="0" y2="1">
      <stop offset="0%" stop-color="#d0d7de"/>
      <stop offset="100%" stop-color="#9ba3ab"/>
    </linearGradient>
    <linearGradient id="front-white" x1="0" y1="0" x2="1" y2="0">
      <stop offset="0%" stop-color="#d0d7de"/>
      <stop offset="100%" stop-color="#9ba3ab"/>
    </linearGradient>
    <linearGradient id="roof-dark" x1="0" y1="0" x2="0" y2="1">
      <stop offset="0%" stop-color="#2c3038"/>
      <stop offset="100%" stop-color="#1a1d24"/>
    </linearGradient>
    <linearGradient id="glass-light" x1="0" y1="0" x2="0" y2="1">
      <stop offset="0%" stop-color="#5ab0d8" stop-opacity="0.6"/>
      <stop offset="100%" stop-color="#2a7099" stop-opacity="0.4"/>
    </linearGradient>
    <linearGradient id="wheel-rim" x1="0" y1="0" x2="1" y2="1">
      <stop offset="0%" stop-color="#f0f0f0"/>
      <stop offset="100%" stop-color="#b0b0b0"/>
    </linearGradient>
  </defs>

  <!-- Ground shadow — slightly smaller for compact -->
  <ellipse cx="80" cy="84" rx="55" ry="5" fill="url(#shadow)"/>

  <!-- === COMPACT BODY — slightly shorter === -->
  <!-- Side panel -->
  <path d="M24 55 L24 73 Q24 76 27 76 L118 76 Q121 76 121 73 L121 55 Z" fill="url(#body-side-white)"/>
  <!-- Top surface -->
  <path d="M24 55 L40 46 L130 46 L121 55 Z" fill="url(#body-white)"/>
  <!-- Front face -->
  <path d="M121 46 L130 46 L130 73 Q130 76 127 76 L121 76 L121 46 Z" fill="url(#front-white)"/>

  <!-- === CABIN === -->
  <path d="M40 55 L50 31 L108 31 L118 55 Z" fill="url(#body-side-white)"/>
  <path d="M50 31 L54 26 L114 26 L116 31 L108 31 Z" fill="url(#roof-dark)"/>
  <path d="M108 31 L114 26 L122 40 L121 46 L118 55 Z" fill="#1a1d24"/>

  <!-- Windows -->
  <path d="M46 54 L54 32 L78 32 L78 54 Z" fill="url(#glass-light)"/>
  <path d="M82 54 L82 32 L106 32 L112 54 Z" fill="url(#glass-light)"/>
  <path d="M112 54 L106 32 L113 28 L120 43 Z" fill="url(#glass-light)"/>
  <line x1="80" y1="32" x2="80" y2="54" stroke="#1a1d24" stroke-width="2"/>

  <!-- Body details -->
  <path d="M26 62 L120 62" stroke="#adb5bd" stroke-width="1" stroke-opacity="0.5"/>
  <rect x="64" y="57" width="13" height="3" rx="1.5" fill="#c9d1d9" stroke="#888" stroke-width="0.5"/>
  <rect x="96" y="57" width="13" height="3" rx="1.5" fill="#c9d1d9" stroke="#888" stroke-width="0.5"/>
  <path d="M118 49 L124 47 L125 51 L119 52 Z" fill="#c9d1d9"/>
  <rect x="122" y="61" width="7" height="8" rx="1" fill="#2c3038"/>
  <path d="M121 51 L129 51 L130 56 L121 57 Z" fill="#fff9c4" fill-opacity="0.88"/>
  <rect x="121" y="50" width="8" height="1.5" rx="0.75" fill="#ffe066" fill-opacity="0.95"/>
  <rect x="24" y="53" width="3" height="9" rx="1" fill="#e03131" fill-opacity="0.85"/>
  <path d="M57 27 Q82 23 112 27" stroke="white" stroke-width="1.5" stroke-opacity="0.25" fill="none" stroke-linecap="round"/>

  <!-- Wheels — slightly smaller for compact -->
  <circle cx="46" cy="76" r="12" fill="#1a1a2e"/>
  <circle cx="46" cy="76" r="8.5" fill="#2d2d3d"/>
  <circle cx="46" cy="76" r="5.5" fill="url(#wheel-rim)"/>
  <circle cx="46" cy="76" r="2.2" fill="#555"/>
  <line x1="46" y1="70.5" x2="46" y2="81.5" stroke="#b0b0b0" stroke-width="1.5" stroke-opacity="0.6"/>
  <line x1="40.5" y1="76" x2="51.5" y2="76" stroke="#b0b0b0" stroke-width="1.5" stroke-opacity="0.6"/>
  <line x1="42.1" y1="72.1" x2="49.9" y2="79.9" stroke="#b0b0b0" stroke-width="1" stroke-opacity="0.4"/>
  <line x1="49.9" y1="72.1" x2="42.1" y2="79.9" stroke="#b0b0b0" stroke-width="1" stroke-opacity="0.4"/>
  <circle cx="104" cy="76" r="12" fill="#1a1a2e"/>
  <circle cx="104" cy="76" r="8.5" fill="#2d2d3d"/>
  <circle cx="104" cy="76" r="5.5" fill="url(#wheel-rim)"/>
  <circle cx="104" cy="76" r="2.2" fill="#555"/>
  <line x1="104" y1="70.5" x2="104" y2="81.5" stroke="#b0b0b0" stroke-width="1.5" stroke-opacity="0.6"/>
  <line x1="98.5" y1="76" x2="109.5" y2="76" stroke="#b0b0b0" stroke-width="1.5" stroke-opacity="0.6"/>
  <line x1="100.1" y1="72.1" x2="107.9" y2="79.9" stroke="#b0b0b0" stroke-width="1" stroke-opacity="0.4"/>
  <line x1="107.9" y1="72.1" x2="100.1" y2="79.9" stroke="#b0b0b0" stroke-width="1" stroke-opacity="0.4"/>
</svg>
