<svg xmlns="http://www.w3.org/2000/svg" viewBox="0 0 120 72" fill="none">
  <ellipse cx="58" cy="66" rx="50" ry="5" fill="#000" fill-opacity="0.10"/>
  <path d="M8 44 L15 48 L15 62 L8 58 Z" fill="#484f58"/>
  <rect x="15" y="34" width="86" height="26" rx="11" fill="#6e7681"/>
  <ellipse cx="33" cy="60" rx="14" ry="5" fill="#000" fill-opacity="0.15"/>
  <ellipse cx="86" cy="60" rx="14" ry="5" fill="#000" fill-opacity="0.15"/>
  <path d="M26 34 C30 16, 82 16, 86 34 Z" fill="#6e7681"/>
  <path d="M101 36 L111 41 L111 58 L101 58 Z" fill="#484f58"/>
  <path d="M30 34 C33 18, 79 18, 82 34 Z" fill="#0d1117" fill-opacity="0.95"/>
  <path d="M80 34 L86 34 L90 46 L80 38 Z" fill="#1c2128" fill-opacity="0.7"/>
  <circle cx="33" cy="58" r="12" fill="#1f2937"/>
  <circle cx="33" cy="58" r="7" fill="#f8fafc"/>
  <circle cx="33" cy="58" r="3.2" fill="#374151"/>
  <line x1="33" y1="51" x2="33" y2="65" stroke="#9ca3af" stroke-width="1" stroke-opacity="0.5"/>
  <line x1="26" y1="58" x2="40" y2="58" stroke="#9ca3af" stroke-width="1" stroke-opacity="0.5"/>
  <circle cx="86" cy="58" r="12" fill="#1f2937"/>
  <circle cx="86" cy="58" r="7" fill="#f8fafc"/>
  <circle cx="86" cy="58" r="3.2" fill="#374151"/>
  <line x1="86" y1="51" x2="86" y2="65" stroke="#9ca3af" stroke-width="1" stroke-opacity="0.5"/>
  <line x1="79" y1="58" x2="93" y2="58" stroke="#9ca3af" stroke-width="1" stroke-opacity="0.5"/>
  <rect x="15" y="16" width="86" height="44" rx="11" fill="url(#g2)" fill-opacity="0.18"/>
  <rect x="103" y="42" width="7" height="2.5" rx="1.2" fill="#fde68a" fill-opacity="0.92"/>
  <rect x="8" y="42" width="5" height="2.5" rx="1.2" fill="#f85149" fill-opacity="0.8"/>
  <path d="M36 20 Q58 16 76 20" stroke="white" stroke-width="1.5" stroke-opacity="0.3" stroke-linecap="round" fill="none"/>
  <defs>
    <radialGradient id="g2" cx="35%" cy="30%" r="65%">
      <stop offset="0%" stop-color="white" stop-opacity="1"/>
      <stop offset="100%" stop-color="black" stop-opacity="0"/>
    </radialGradient>
  </defs>
</svg>
