<svg xmlns="http://www.w3.org/2000/svg" viewBox="0 0 640 480"><path fill="#cc0001" d="M0 0h640v34.3H0z"/><path fill="#fff" d="M0 34.3h640v34.3H0z"/><path fill="#cc0001" d="M0 68.6h640v34.3H0z"/><path fill="#fff" d="M0 102.9h640v34.3H0z"/><path fill="#cc0001" d="M0 137.1h640v34.3H0z"/><path fill="#fff" d="M0 171.4h640v34.3H0z"/><path fill="#cc0001" d="M0 205.7h640v34.3H0z"/><path fill="#fff" d="M0 240h640v34.3H0z"/><path fill="#cc0001" d="M0 274.3h640v34.3H0z"/><path fill="#fff" d="M0 308.6h640v34.3H0z"/><path fill="#cc0001" d="M0 342.9h640v34.3H0z"/><path fill="#fff" d="M0 377.1h640v34.3H0z"/><path fill="#cc0001" d="M0 411.4h640v34.3H0z"/><path fill="#fff" d="M0 445.7h640v34.3H0z"/><path fill="#010066" d="M0 0h320v274.3H0z"/><circle cx="138" cy="137" r="72" fill="#fc0"/><circle cx="163" cy="137" r="60" fill="#010066"/><path fill="#fc0" d="m193 90 13 44h46l-37 27 14 44-36-27-37 27 14-44-37-27h46z"/></svg>