<svg xmlns="http://www.w3.org/2000/svg" viewBox="0 0 640 480"><path fill="#00247D" d="M0 0h640v480H0z"/><path fill="#fff" d="M0 0h320v240H0z"/><path fill="#012169" d="M0 0h320v240H0z"/><path fill="#FFF" d="m37.5 0 122 90.5L281.5 0h38.5v24l-120 89.5L320 202v38h-40L160 152 41 240H0v-38l119.5-88L0 26V0h37.5z"/><path fill="#C8102E" d="M212 140.5 320 220v20l-135.5-99.5h27.5zm-92 10 3 17.5L24 240H0l120-89.5zM320 0v1.5l-124.5 94 1-22L295 0h25zM0 0l119.5 88h-30L0 21V0z"/><path fill="#FFF" d="M120.5 0v240h80V0h-80zM0 80v80h320V80H0z"/><path fill="#C8102E" d="M0 96.5v48h320v-48H0zM136.5 0v240h48V0h-48z"/><path fill="#C8102E" d="m460 160 8 25h26l-21 15 8 25-21-15-21 15 8-25-21-15h26zm70 100 8 25h26l-21 15 8 25-21-15-21 15 8-25-21-15h26zm-20 120 6 18h19l-15 11 6 18-16-12-16 12 6-18-15-11h19zm50-200 6 18h19l-15 11 6 18-16-12-16 12 6-18-15-11h19z"/></svg>