<svg xmlns="http://www.w3.org/2000/svg" viewBox="0 0 640 480"><path fill="#EE2536" d="M0 0h640v240H0z"/><path fill="#fff" d="M0 240h640v240H0z"/><path fill="#fff" d="M146 40a70 70 0 1 0 0 140 56 56 0 1 1 0-140z"/><path fill="#fff" d="m186 65 5 16h17l-14 10 5 16-13-10-14 10 6-16-14-10h17zm40 20 5 16h17l-14 10 5 16-13-10-14 10 6-16-14-10h17zm-12 38 5 16h17l-14 10 5 16-13-10-14 10 6-16-14-10h17zm-40 0 5 16h17l-14 10 5 16-13-10-14 10 6-16-14-10h17zm-12-38 5 16h17l-14 10 5 16-13-10-14 10 6-16-14-10h17z"/></svg>